<svg width="45" height="45" viewBox="0 0 45 45" fill="none" xmlns="http://www.w3.org/2000/svg">
<path d="M14.7724 44.5592C15.8443 44.5547 16.8716 44.1291 17.6327 43.3742L20.2205 40.7864C20.9881 41.5263 22.0146 41.9369 23.0808 41.9305C23.9062 41.9607 24.7214 41.7401 25.4189 41.2977C26.1164 40.8553 26.6634 40.2119 26.9879 39.4523C27.3124 38.6928 27.3991 37.8527 27.2365 37.0429C27.0739 36.2331 26.6697 35.4915 26.0772 34.916L27.5346 33.4587C27.7423 33.251 27.859 32.9693 27.859 32.6755C27.859 32.3818 27.7423 32.1001 27.5346 31.8924C27.3269 31.6846 27.0452 31.568 26.7514 31.568C26.4577 31.568 26.176 31.6846 25.9683 31.8924L23.6119 34.2623C23.4865 34.3895 23.3938 34.5453 23.3418 34.7163C23.2899 34.8872 23.2802 35.0683 23.3137 35.2438C23.3472 35.4193 23.4229 35.5841 23.5341 35.7239C23.6454 35.8637 23.7889 35.9745 23.9525 36.0465C24.1451 36.132 24.3205 36.2521 24.47 36.4007C24.7429 36.6704 24.9295 37.0152 25.0059 37.3912C25.0823 37.7672 25.0451 38.1575 24.8991 38.5123C24.753 38.8672 24.5048 39.1706 24.1858 39.3839C23.8669 39.5972 23.4917 39.7109 23.108 39.7104C22.8544 39.7097 22.6036 39.6587 22.3698 39.5606C22.136 39.4624 21.924 39.3189 21.746 39.1383C21.5976 38.9886 21.4776 38.8133 21.3918 38.6208C21.3151 38.4628 21.2017 38.3254 21.0611 38.2201C20.9205 38.1147 20.7568 38.0445 20.5837 38.0152C20.4105 37.9859 20.2328 37.9984 20.0654 38.0516C19.898 38.1048 19.7457 38.1972 19.6212 38.3211L16.0799 41.8351C15.7269 42.1645 15.262 42.3477 14.7792 42.3477C14.2964 42.3477 13.8315 42.1645 13.4785 41.8351L11.3129 39.6695C11.8994 39.094 12.2988 38.3549 12.4589 37.5489C12.6189 36.7429 12.5323 35.9073 12.2102 35.1514C11.888 34.3953 11.3455 33.754 10.6533 33.3111C9.96108 32.8683 9.15143 32.6444 8.33003 32.6687C7.26194 32.6659 6.23524 33.0815 5.46978 33.8264L3.27691 31.6336C3.10601 31.4628 2.97042 31.26 2.87792 31.0368C2.78542 30.8137 2.73781 30.5744 2.73781 30.3328C2.73781 30.0912 2.78542 29.852 2.87792 29.6288C2.97042 29.4056 3.10601 29.2029 3.27691 29.0321L6.79094 25.4908C6.91684 25.3646 7.01026 25.2096 7.06318 25.0393C7.11611 24.8691 7.12697 24.6885 7.09484 24.5131C7.0627 24.3377 6.98853 24.1727 6.87867 24.0322C6.76881 23.8918 6.62655 23.78 6.46405 23.7066C6.26562 23.6182 6.08547 23.4934 5.93287 23.3388C5.57355 22.9766 5.37194 22.487 5.37194 21.9768C5.37194 21.4666 5.57355 20.977 5.93287 20.6148C6.30009 20.265 6.78777 20.07 7.29489 20.07C7.80201 20.07 8.28969 20.265 8.65691 20.6148C8.81128 20.7676 8.93596 20.9477 9.02466 21.146C9.0981 21.3085 9.20984 21.4507 9.35031 21.5606C9.49077 21.6704 9.65577 21.7446 9.83117 21.7768C10.0066 21.8089 10.1871 21.798 10.3574 21.7451C10.5277 21.6922 10.6826 21.5988 10.8089 21.4729L13.1788 19.1166C13.2817 19.0137 13.3633 18.8916 13.4189 18.7572C13.4746 18.6229 13.5032 18.4788 13.5032 18.3334C13.5032 18.1879 13.4746 18.0439 13.4189 17.9095C13.3633 17.7752 13.2817 17.6531 13.1788 17.5502C12.9711 17.3425 12.6894 17.2258 12.3957 17.2258C12.2502 17.2258 12.1062 17.2545 11.9718 17.3101C11.8375 17.3658 11.7154 17.4474 11.6125 17.5502L10.1551 19.0076C9.3696 18.2692 8.3321 17.8582 7.25403 17.8582C6.17596 17.8582 5.13845 18.2692 4.35292 19.0076C3.96993 19.3874 3.66595 19.8394 3.45851 20.3373C3.25106 20.8352 3.14426 21.3693 3.14426 21.9087C3.14426 22.4481 3.25106 22.9822 3.45851 23.4801C3.66595 23.978 3.96993 24.43 4.35292 24.8098L1.76507 27.3977C1.01639 28.1615 0.597034 29.1884 0.597034 30.2579C0.597034 31.3275 1.01639 32.3544 1.76507 33.1182L4.82962 36.1827C4.9559 36.3086 5.11082 36.402 5.28111 36.455C5.45139 36.5079 5.63197 36.5188 5.80737 36.4866C5.98277 36.4545 6.14777 36.3803 6.28823 36.2705C6.42869 36.1606 6.54043 36.0183 6.61388 35.8558C6.6994 35.6632 6.81941 35.4878 6.968 35.3383C7.14603 35.1577 7.35804 35.0142 7.59181 34.916C7.82558 34.8179 8.07648 34.7669 8.33003 34.7662C8.58273 34.7644 8.83328 34.8128 9.0671 34.9087C9.30092 35.0046 9.51336 35.146 9.69205 35.3247C10.0514 35.6869 10.253 36.1765 10.253 36.6867C10.253 37.1969 10.0514 37.6865 9.69205 38.0487C9.53741 38.2045 9.35789 38.3333 9.16086 38.4301C9.00288 38.5068 8.86551 38.6202 8.76018 38.7608C8.65485 38.9014 8.58461 39.0651 8.5553 39.2383C8.52599 39.4115 8.53846 39.5891 8.59167 39.7565C8.64488 39.9239 8.73729 40.0762 8.86122 40.2007L11.9258 43.2653C12.6656 44.0569 13.6895 44.5224 14.7724 44.5592Z" fill="#F89325"/>
<path d="M29.2778 30.0538C30.3497 30.0493 31.3769 29.6237 32.138 28.8688L34.7259 26.281C35.5025 27.0576 36.5559 27.4939 37.6542 27.4939C38.7526 27.4939 39.8059 27.0576 40.5826 26.281C41.3592 25.5043 41.7955 24.4509 41.7955 23.3526C41.7955 22.2543 41.3592 21.2009 40.5826 20.4242L42.9525 18.0543C43.7074 17.2932 44.1329 16.266 44.1375 15.1941C44.1329 14.1221 43.7074 13.0949 42.9525 12.3338L40.7869 10.1682C41.1699 9.78834 41.4738 9.33642 41.6813 8.83849C41.8887 8.34057 41.9955 7.80649 41.9955 7.26708C41.9955 6.72767 41.8887 6.1936 41.6813 5.69567C41.4738 5.19775 41.1699 4.74582 40.7869 4.36597C40.0013 3.62761 38.9638 3.21655 37.8858 3.21655C36.8077 3.21655 35.7702 3.62761 34.9846 4.36597L32.7782 2.15949C32.0144 1.41081 30.9875 0.991455 29.9179 0.991455C28.8484 0.991455 27.8215 1.41081 27.0577 2.15949L24.6877 4.51579C24.3032 4.13124 23.8466 3.82619 23.3442 3.61807C22.8417 3.40995 22.3032 3.30283 21.7594 3.30283C21.2155 3.30283 20.677 3.40995 20.1746 3.61807C19.6721 3.82619 19.2156 4.13124 18.831 4.51579C18.4465 4.90035 18.1414 5.35688 17.9333 5.85933C17.7252 6.36178 17.6181 6.9003 17.6181 7.44415C17.6181 7.98799 17.7252 8.52651 17.9333 9.02896C18.1414 9.53141 18.4465 9.98794 18.831 10.3725L16.2432 12.9603C15.4945 13.7242 15.0751 14.7511 15.0751 15.8206C15.0751 16.8901 15.4945 17.917 16.2432 18.6809L19.3077 21.7454C19.435 21.8709 19.5908 21.9636 19.7617 22.0155C19.9327 22.0675 20.1137 22.0771 20.2893 22.0436C20.4648 22.0101 20.6296 21.9345 20.7694 21.8232C20.9092 21.712 21.0199 21.5684 21.092 21.4049C21.1778 21.2124 21.2978 21.037 21.4461 20.8873C21.6182 20.681 21.8314 20.5127 22.0721 20.3934C22.3128 20.274 22.5758 20.206 22.8442 20.1939C23.1126 20.1818 23.3806 20.2257 23.6311 20.3229C23.8816 20.4201 24.1091 20.5684 24.2991 20.7584C24.4891 20.9484 24.6374 21.1759 24.7346 21.4264C24.8318 21.6769 24.8757 21.9449 24.8636 22.2133C24.8514 22.4817 24.7835 22.7447 24.6641 22.9854C24.5448 23.2261 24.3765 23.4393 24.1702 23.6114C24.0155 23.7671 23.836 23.896 23.639 23.9928C23.481 24.0695 23.3436 24.1829 23.2383 24.3235C23.133 24.4641 23.0627 24.6278 23.0334 24.8009C23.0041 24.9741 23.0166 25.1518 23.0698 25.3192C23.123 25.4866 23.2154 25.6389 23.3393 25.7634L26.4311 28.8688C27.1888 29.6204 28.2105 30.0457 29.2778 30.0538ZM34.8621 23.4888C34.5702 23.4908 34.2911 23.6083 34.0857 23.8157L30.5172 27.3161C30.1657 27.6485 29.7002 27.8337 29.2165 27.8337C28.7327 27.8337 28.2673 27.6485 27.9157 27.3161L25.7501 25.1505C26.1331 24.7706 26.4371 24.3187 26.6445 23.8208C26.852 23.3228 26.9588 22.7888 26.9588 22.2494C26.9588 21.7099 26.852 21.1759 26.6445 20.678C26.4371 20.18 26.1331 19.7281 25.7501 19.3482C25.3705 18.9673 24.9194 18.6651 24.4228 18.4588C23.9261 18.2526 23.3936 18.1464 22.8558 18.1464C22.318 18.1464 21.7855 18.2526 21.2889 18.4588C20.7922 18.6651 20.3411 18.9673 19.9615 19.3482L17.8095 17.1962C17.6386 17.0255 17.503 16.8227 17.4105 16.5995C17.318 16.3763 17.2704 16.1371 17.2704 15.8955C17.2704 15.6539 17.318 15.4147 17.4105 15.1915C17.503 14.9683 17.6386 14.7655 17.8095 14.5948L21.2963 11.0399C21.4226 10.9146 21.5168 10.7605 21.5707 10.5909C21.6246 10.4213 21.6367 10.2412 21.6059 10.0659C21.5751 9.89062 21.5024 9.72539 21.394 9.58429C21.2855 9.4432 21.1445 9.33044 20.983 9.25564C20.7851 9.1664 20.605 9.04178 20.4518 8.88789C20.1427 8.51714 19.9833 8.04416 20.0051 7.5619C20.0269 7.07964 20.2282 6.62296 20.5696 6.28161C20.911 5.94025 21.3676 5.73889 21.8499 5.7171C22.3322 5.69531 22.8051 5.85466 23.1759 6.16384C23.3305 6.31645 23.4552 6.4966 23.5436 6.69503C23.6171 6.85752 23.7288 6.99979 23.8693 7.10965C24.0097 7.21951 24.1747 7.29368 24.3501 7.32582C24.5255 7.35795 24.7061 7.34709 24.8764 7.29416C25.0467 7.24124 25.2016 7.14782 25.3279 7.02192L28.6104 3.69858C28.9634 3.36922 29.4283 3.18606 29.9111 3.18606C30.3939 3.18606 30.8588 3.36922 31.2118 3.69858L34.2764 6.79037C34.4027 6.91696 34.5582 7.01051 34.7293 7.06276C34.9003 7.11502 35.0815 7.12438 35.257 7.09002C35.4382 7.05589 35.6079 6.97693 35.7506 6.86035C35.8934 6.74377 36.0046 6.59328 36.0743 6.42263C36.1644 6.2292 36.289 6.05382 36.442 5.90506C36.8092 5.55532 37.2969 5.36025 37.804 5.36025C38.3112 5.36025 38.7988 5.55532 39.1661 5.90506C39.5221 6.26902 39.7215 6.75793 39.7215 7.26708C39.7215 7.77624 39.5221 8.26515 39.1661 8.62911C39.0073 8.78611 38.8231 8.91506 38.6212 9.01048C38.4633 9.08725 38.3259 9.20064 38.2206 9.34121C38.1152 9.48178 38.045 9.64548 38.0157 9.81867C37.9864 9.99186 37.9988 10.1695 38.0521 10.3369C38.1053 10.5043 38.1977 10.6566 38.3216 10.7811L41.4134 13.9001C41.5843 14.0709 41.7199 14.2737 41.8124 14.4969C41.9049 14.7201 41.9525 14.9593 41.9525 15.2009C41.9525 15.4425 41.9049 15.6817 41.8124 15.9049C41.7199 16.1281 41.5843 16.3309 41.4134 16.5016L38.1445 19.7705C38.0161 19.8976 37.9208 20.0543 37.8671 20.2268C37.8134 20.3994 37.8029 20.5824 37.8366 20.76C37.8702 20.9375 37.9469 21.1041 38.06 21.2451C38.1731 21.386 38.319 21.497 38.485 21.5683C38.6733 21.6545 38.8441 21.7745 38.989 21.9225C39.1953 22.0946 39.3636 22.3078 39.483 22.5485C39.6024 22.7892 39.6703 23.0521 39.6824 23.3205C39.6945 23.589 39.6506 23.857 39.5534 24.1074C39.4562 24.3579 39.3079 24.5854 39.1179 24.7754C38.9279 24.9654 38.7004 25.1137 38.4499 25.2109C38.1994 25.3081 37.9314 25.3521 37.663 25.3399C37.3946 25.3278 37.1316 25.2599 36.8909 25.1405C36.6502 25.0211 36.437 24.8529 36.2649 24.6465C36.1017 24.5006 35.9677 24.3249 35.87 24.129C35.7797 23.9378 35.6371 23.7762 35.4587 23.6629C35.2803 23.5496 35.0734 23.4892 34.8621 23.4888Z" fill="white"/>
</svg>
