<svg width="241" height="377" viewBox="0 0 241 377" fill="none" xmlns="http://www.w3.org/2000/svg">
<g filter="url(#filter0_d_424_2)">
<path fill-rule="evenodd" clip-rule="evenodd" d="M23 12.5586C19.6863 12.5586 17 15.2449 17 18.5586V265.224C22.997 265.224 27.8585 270.085 27.8585 276.082C27.8585 282.079 22.997 286.941 17 286.941V348.452C17 351.765 19.6863 354.452 23 354.452H217.421C220.734 354.452 223.421 351.765 223.421 348.452V286.941C223.421 286.941 223.42 286.941 223.42 286.941C217.7 286.941 213.013 282.518 212.592 276.906H205.412V273.906H212.615V274.994C213.161 269.508 217.79 265.224 223.42 265.224C223.42 265.224 223.421 265.224 223.421 265.224V18.5586C223.421 15.2449 220.734 12.5586 217.421 12.5586H23ZM39.7385 276.906H32.5353V273.906H39.7385V276.906ZM54.1449 276.906H46.9417V273.906H54.1449V276.906ZM68.5513 276.906H61.3481V273.906H68.5513V276.906ZM82.9577 276.906H75.7545V273.906H82.9577V276.906ZM97.3641 276.906H90.1609V273.906H97.3641V276.906ZM111.771 276.906H104.567V273.906H111.771V276.906ZM126.177 276.906H118.974V273.906H126.177V276.906ZM140.583 276.906H133.38V273.906H140.583V276.906ZM154.99 276.906H147.787V273.906H154.99V276.906ZM169.396 276.906H162.193V273.906H169.396V276.906ZM183.803 276.906H176.599V273.906H183.803V276.906ZM198.209 276.906H191.006V273.906H198.209V276.906Z" fill="url(#paint0_linear_424_2)"/>
</g>
<path d="M75.6102 108.689L66.1602 92.189V89.989H67.2602C69.0269 89.989 70.5102 89.8223 71.7102 89.489C72.9435 89.1556 73.9102 88.6056 74.6102 87.839C75.3102 87.0723 75.7269 86.0223 75.8602 84.689H66.1602V81.489H75.8102C75.5769 80.2556 75.1102 79.2556 74.4102 78.489C73.7102 77.689 72.7602 77.1056 71.5602 76.739C70.3935 76.3723 68.9602 76.189 67.2602 76.189H66.1602V72.989H86.8602V76.189H77.4102C78.1769 76.8223 78.8102 77.5723 79.3102 78.439C79.8102 79.3056 80.1269 80.3223 80.2602 81.489H86.8602V84.689H80.3602C80.1269 87.1223 79.1935 89.0223 77.5602 90.389C75.9602 91.7223 73.8269 92.5723 71.1602 92.939L80.7102 108.689H75.6102ZM101.433 79.989V73.389H114.133V108.689H106.733V79.989H101.433ZM127.137 98.189C127.67 101.656 129.47 103.389 132.537 103.389C134.87 103.389 136.554 102.372 137.587 100.339C138.62 98.2723 139.07 95.0556 138.937 90.689C138.404 92.289 137.354 93.5723 135.787 94.539C134.254 95.4723 132.454 95.939 130.387 95.939C126.987 95.939 124.304 94.9223 122.337 92.889C120.404 90.8223 119.437 87.9056 119.437 84.139C119.437 81.839 119.904 79.789 120.837 77.989C121.77 76.1556 123.154 74.7223 124.987 73.689C126.854 72.6556 129.104 72.139 131.737 72.139C136.87 72.139 140.404 73.7056 142.337 76.839C144.27 79.939 145.237 84.2556 145.237 89.789C145.237 96.089 144.254 100.872 142.287 104.139C140.354 107.406 137.104 109.039 132.537 109.039C130.104 109.039 128.004 108.556 126.237 107.589C124.504 106.622 123.154 105.322 122.187 103.689C121.254 102.022 120.704 100.189 120.537 98.189H127.137ZM138.337 84.639C138.337 82.7723 137.787 81.239 136.687 80.039C135.62 78.8056 134.037 78.189 131.937 78.189C130.137 78.189 128.704 78.7223 127.637 79.789C126.57 80.8556 126.037 82.339 126.037 84.239C126.037 86.239 126.57 87.789 127.637 88.889C128.737 89.9556 130.204 90.489 132.037 90.489C133.737 90.489 135.204 89.989 136.437 88.989C137.704 87.9556 138.337 86.5056 138.337 84.639ZM157.313 98.189C157.846 101.656 159.646 103.389 162.713 103.389C165.046 103.389 166.73 102.372 167.763 100.339C168.796 98.2723 169.246 95.0556 169.113 90.689C168.58 92.289 167.53 93.5723 165.963 94.539C164.43 95.4723 162.63 95.939 160.563 95.939C157.163 95.939 154.48 94.9223 152.513 92.889C150.58 90.8223 149.613 87.9056 149.613 84.139C149.613 81.839 150.08 79.789 151.013 77.989C151.946 76.1556 153.33 74.7223 155.163 73.689C157.03 72.6556 159.28 72.139 161.913 72.139C167.046 72.139 170.58 73.7056 172.513 76.839C174.446 79.939 175.413 84.2556 175.413 89.789C175.413 96.089 174.43 100.872 172.463 104.139C170.53 107.406 167.28 109.039 162.713 109.039C160.28 109.039 158.18 108.556 156.413 107.589C154.68 106.622 153.33 105.322 152.363 103.689C151.43 102.022 150.88 100.189 150.713 98.189H157.313ZM168.513 84.639C168.513 82.7723 167.963 81.239 166.863 80.039C165.796 78.8056 164.213 78.189 162.113 78.189C160.313 78.189 158.88 78.7223 157.813 79.789C156.746 80.8556 156.213 82.339 156.213 84.239C156.213 86.239 156.746 87.789 157.813 88.889C158.913 89.9556 160.38 90.489 162.213 90.489C163.913 90.489 165.38 89.989 166.613 88.989C167.88 87.9556 168.513 86.5056 168.513 84.639Z" fill="white"/>
<path d="M78.9902 145.009V150.689H77.1702V136.589H81.6502C83.2635 136.589 84.4702 136.969 85.2702 137.729C86.0702 138.476 86.4702 139.502 86.4702 140.809C86.4702 142.129 86.0569 143.162 85.2302 143.909C84.4035 144.642 83.2102 145.009 81.6502 145.009H78.9902ZM81.4902 143.489C82.5969 143.489 83.3902 143.256 83.8702 142.789C84.3635 142.322 84.6102 141.662 84.6102 140.809C84.6102 139.929 84.3635 139.262 83.8702 138.809C83.3902 138.342 82.5969 138.109 81.4902 138.109H78.9902V143.489H81.4902ZM98.696 144.589C98.696 144.976 98.6693 145.309 98.616 145.589H89.836C89.876 146.842 90.2293 147.782 90.896 148.409C91.576 149.036 92.4027 149.349 93.376 149.349C94.256 149.349 94.9893 149.129 95.576 148.689C96.176 148.236 96.5427 147.636 96.676 146.889H98.616C98.4827 147.649 98.1827 148.329 97.716 148.929C97.2627 149.529 96.6693 149.996 95.936 150.329C95.2027 150.662 94.376 150.829 93.456 150.829C92.4027 150.829 91.4693 150.602 90.656 150.149C89.8427 149.696 89.2027 149.049 88.736 148.209C88.2827 147.356 88.056 146.356 88.056 145.209C88.056 144.062 88.2827 143.062 88.736 142.209C89.2027 141.356 89.8427 140.702 90.656 140.249C91.4693 139.796 92.4027 139.569 93.456 139.569C94.5227 139.569 95.4493 139.796 96.236 140.249C97.036 140.702 97.6427 141.309 98.056 142.069C98.4827 142.829 98.696 143.669 98.696 144.589ZM96.856 144.709C96.896 143.896 96.7627 143.216 96.456 142.669C96.1493 142.122 95.7293 141.716 95.196 141.449C94.6627 141.182 94.0827 141.049 93.456 141.049C92.456 141.049 91.616 141.362 90.936 141.989C90.256 142.602 89.8893 143.509 89.836 144.709H96.856ZM102.896 141.929C103.256 141.169 103.783 140.582 104.476 140.169C105.17 139.742 105.996 139.529 106.956 139.529V141.509H106.396C105.37 141.509 104.53 141.776 103.876 142.309C103.223 142.829 102.896 143.696 102.896 144.909V150.689H101.076V139.709H102.896V141.929ZM119.474 139.529C120.754 139.529 121.787 139.942 122.574 140.769C123.36 141.582 123.754 142.762 123.754 144.309V150.689H121.934V144.469C121.934 143.376 121.654 142.536 121.094 141.949C120.534 141.362 119.774 141.069 118.814 141.069C117.814 141.069 117.014 141.396 116.414 142.049C115.814 142.689 115.514 143.629 115.514 144.869V150.689H113.694V135.889H115.514V142.309C115.794 141.416 116.287 140.729 116.994 140.249C117.714 139.769 118.54 139.529 119.474 139.529ZM136.645 144.589C136.645 144.976 136.619 145.309 136.565 145.589H127.785C127.825 146.842 128.179 147.782 128.845 148.409C129.525 149.036 130.352 149.349 131.325 149.349C132.205 149.349 132.939 149.129 133.525 148.689C134.125 148.236 134.492 147.636 134.625 146.889H136.565C136.432 147.649 136.132 148.329 135.665 148.929C135.212 149.529 134.619 149.996 133.885 150.329C133.152 150.662 132.325 150.829 131.405 150.829C130.352 150.829 129.419 150.602 128.605 150.149C127.792 149.696 127.152 149.049 126.685 148.209C126.232 147.356 126.005 146.356 126.005 145.209C126.005 144.062 126.232 143.062 126.685 142.209C127.152 141.356 127.792 140.702 128.605 140.249C129.419 139.796 130.352 139.569 131.405 139.569C132.472 139.569 133.399 139.796 134.185 140.249C134.985 140.702 135.592 141.309 136.005 142.069C136.432 142.829 136.645 143.669 136.645 144.589ZM134.805 144.709C134.845 143.896 134.712 143.216 134.405 142.669C134.099 142.122 133.679 141.716 133.145 141.449C132.612 141.182 132.032 141.049 131.405 141.049C130.405 141.049 129.565 141.362 128.885 141.989C128.205 142.602 127.839 143.509 127.785 144.709H134.805ZM143.526 139.569C144.592 139.569 145.492 139.836 146.226 140.369C146.972 140.902 147.492 141.616 147.786 142.509V139.709H149.606V150.689H147.786V147.889C147.492 148.782 146.972 149.496 146.226 150.029C145.492 150.562 144.592 150.829 143.526 150.829C142.552 150.829 141.686 150.602 140.926 150.149C140.166 149.696 139.566 149.049 139.126 148.209C138.699 147.356 138.486 146.356 138.486 145.209C138.486 144.062 138.699 143.062 139.126 142.209C139.566 141.356 140.166 140.702 140.926 140.249C141.686 139.796 142.552 139.569 143.526 139.569ZM144.046 141.189C142.926 141.189 142.026 141.549 141.346 142.269C140.679 142.976 140.346 143.956 140.346 145.209C140.346 146.462 140.679 147.449 141.346 148.169C142.026 148.876 142.926 149.229 144.046 149.229C144.766 149.229 145.406 149.062 145.966 148.729C146.539 148.396 146.986 147.929 147.306 147.329C147.626 146.716 147.786 146.009 147.786 145.209C147.786 144.409 147.626 143.702 147.306 143.089C146.986 142.476 146.539 142.009 145.966 141.689C145.406 141.356 144.766 141.189 144.046 141.189ZM157.002 139.569C158.069 139.569 158.969 139.836 159.702 140.369C160.449 140.902 160.969 141.616 161.262 142.509V135.889H163.082V150.689H161.262V147.889C160.969 148.782 160.449 149.496 159.702 150.029C158.969 150.562 158.069 150.829 157.002 150.829C156.029 150.829 155.162 150.602 154.402 150.149C153.642 149.696 153.042 149.049 152.602 148.209C152.176 147.356 151.962 146.356 151.962 145.209C151.962 144.062 152.176 143.062 152.602 142.209C153.042 141.356 153.642 140.702 154.402 140.249C155.162 139.796 156.029 139.569 157.002 139.569ZM157.522 141.189C156.402 141.189 155.502 141.549 154.822 142.269C154.156 142.976 153.822 143.956 153.822 145.209C153.822 146.462 154.156 147.449 154.822 148.169C155.502 148.876 156.402 149.229 157.522 149.229C158.242 149.229 158.882 149.062 159.442 148.729C160.016 148.396 160.462 147.929 160.782 147.329C161.102 146.716 161.262 146.009 161.262 145.209C161.262 144.409 161.102 143.702 160.782 143.089C160.462 142.476 160.016 142.009 159.442 141.689C158.882 141.356 158.242 141.189 157.522 141.189Z" fill="white"/>
<path d="M100.625 199.879C100.556 199.333 100.37 198.913 100.066 198.618C99.7715 198.315 99.3599 198.163 98.8312 198.163C98.0945 198.163 97.5355 198.449 97.1542 199.021C96.7815 199.593 96.5952 200.499 96.5952 201.738L96.6082 202.219C96.7382 201.699 97.0372 201.287 97.5052 200.984C97.9732 200.672 98.5235 200.516 99.1562 200.516C100.066 200.516 100.777 200.789 101.288 201.335C101.808 201.881 102.068 202.644 102.068 203.623C102.068 204.195 101.956 204.715 101.73 205.183C101.505 205.642 101.158 206.011 100.69 206.288C100.231 206.557 99.6589 206.691 98.9742 206.691C97.6655 206.691 96.7642 206.279 96.2702 205.456C95.7849 204.633 95.5422 203.515 95.5422 202.102C95.5422 200.473 95.8022 199.251 96.3222 198.436C96.8509 197.613 97.7089 197.201 98.8962 197.201C99.7715 197.201 100.443 197.448 100.911 197.942C101.388 198.436 101.67 199.082 101.756 199.879H100.625ZM96.7382 203.428C96.7382 204.061 96.9202 204.594 97.2842 205.027C97.6569 205.452 98.2115 205.664 98.9482 205.664C99.5549 205.664 100.04 205.486 100.404 205.131C100.768 204.767 100.95 204.26 100.95 203.61C100.95 202.908 100.768 202.375 100.404 202.011C100.04 201.638 99.5375 201.452 98.8962 201.452C98.5322 201.452 98.1855 201.526 97.8562 201.673C97.5269 201.82 97.2582 202.046 97.0502 202.349C96.8422 202.644 96.7382 203.003 96.7382 203.428ZM103.525 201.959C103.525 203.432 103.768 204.581 104.253 205.404C104.739 206.227 105.579 206.639 106.775 206.639C107.971 206.639 108.812 206.227 109.297 205.404C109.791 204.581 110.038 203.432 110.038 201.959C110.038 200.503 109.791 199.363 109.297 198.54C108.812 197.717 107.971 197.305 106.775 197.305C105.579 197.305 104.739 197.717 104.253 198.54C103.768 199.355 103.525 200.494 103.525 201.959ZM108.868 201.959C108.868 202.713 108.812 203.346 108.699 203.857C108.595 204.36 108.392 204.763 108.088 205.066C107.785 205.369 107.347 205.521 106.775 205.521C106.212 205.521 105.779 205.369 105.475 205.066C105.172 204.763 104.964 204.36 104.851 203.857C104.747 203.346 104.695 202.713 104.695 201.959C104.695 201.214 104.747 200.59 104.851 200.087C104.964 199.584 105.172 199.186 105.475 198.891C105.779 198.588 106.212 198.436 106.775 198.436C107.347 198.436 107.785 198.588 108.088 198.891C108.392 199.186 108.595 199.584 108.699 200.087C108.812 200.59 108.868 201.214 108.868 201.959ZM113.097 197.305C113.643 197.305 114.093 197.483 114.449 197.838C114.813 198.185 114.995 198.648 114.995 199.229C114.995 199.81 114.817 200.273 114.462 200.62C114.106 200.967 113.651 201.14 113.097 201.14C112.542 201.14 112.087 200.967 111.732 200.62C111.376 200.273 111.199 199.81 111.199 199.229C111.199 198.648 111.376 198.185 111.732 197.838C112.087 197.483 112.542 197.305 113.097 197.305ZM118.271 197.422L113.006 206.6H111.836L117.101 197.422H118.271ZM112.031 199.229C112.031 199.576 112.126 199.857 112.317 200.074C112.516 200.291 112.772 200.399 113.084 200.399C113.404 200.399 113.664 200.291 113.864 200.074C114.063 199.857 114.163 199.576 114.163 199.229C114.163 198.882 114.063 198.601 113.864 198.384C113.664 198.167 113.404 198.059 113.084 198.059C112.772 198.059 112.516 198.167 112.317 198.384C112.126 198.601 112.031 198.882 112.031 199.229ZM117.023 202.882C117.577 202.882 118.028 203.055 118.375 203.402C118.73 203.749 118.908 204.212 118.908 204.793C118.908 205.374 118.73 205.842 118.375 206.197C118.028 206.544 117.577 206.717 117.023 206.717C116.477 206.717 116.022 206.544 115.658 206.197C115.302 205.842 115.125 205.374 115.125 204.793C115.125 204.212 115.302 203.749 115.658 203.402C116.013 203.055 116.468 202.882 117.023 202.882ZM115.957 204.793C115.957 205.14 116.052 205.421 116.243 205.638C116.442 205.855 116.702 205.963 117.023 205.963C117.335 205.963 117.586 205.855 117.777 205.638C117.976 205.421 118.076 205.14 118.076 204.793C118.076 204.446 117.976 204.165 117.777 203.948C117.586 203.731 117.335 203.623 117.023 203.623C116.702 203.623 116.442 203.731 116.243 203.948C116.052 204.165 115.957 204.446 115.957 204.793ZM127.699 197.318C128.548 197.318 129.311 197.517 129.987 197.916C130.672 198.315 131.209 198.874 131.599 199.593C131.989 200.304 132.184 201.11 132.184 202.011C132.184 202.912 131.989 203.723 131.599 204.442C131.209 205.153 130.672 205.707 129.987 206.106C129.311 206.505 128.548 206.704 127.699 206.704C126.85 206.704 126.078 206.505 125.385 206.106C124.7 205.707 124.163 205.153 123.773 204.442C123.383 203.723 123.188 202.912 123.188 202.011C123.188 201.11 123.383 200.304 123.773 199.593C124.163 198.874 124.7 198.315 125.385 197.916C126.078 197.517 126.85 197.318 127.699 197.318ZM127.699 198.423C127.066 198.423 126.499 198.57 125.996 198.865C125.502 199.151 125.112 199.567 124.826 200.113C124.549 200.65 124.41 201.283 124.41 202.011C124.41 202.73 124.549 203.363 124.826 203.909C125.112 204.455 125.502 204.875 125.996 205.17C126.499 205.456 127.066 205.599 127.699 205.599C128.323 205.599 128.882 205.452 129.376 205.157C129.879 204.862 130.269 204.446 130.546 203.909C130.832 203.363 130.975 202.73 130.975 202.011C130.975 201.283 130.832 200.65 130.546 200.113C130.269 199.567 129.879 199.151 129.376 198.865C128.882 198.57 128.323 198.423 127.699 198.423ZM138.97 197.435V198.397H134.966V201.569H138.359V202.492H134.966V206.6H133.783V197.435H138.97ZM145.559 197.435V198.397H141.555V201.569H144.948V202.492H141.555V206.6H140.372V197.435H145.559Z" fill="#FDD400"/>
<rect x="85.2102" y="188.6" width="71" height="26" rx="13" stroke="#FDD400" stroke-opacity="0.57"/>
<path d="M77.2842 307.701C78.7602 307.701 79.9962 308.067 80.9922 308.799C82.0002 309.531 82.6782 310.527 83.0262 311.787H81.2982C80.9982 311.019 80.4942 310.401 79.7862 309.933C79.0902 309.465 78.2622 309.231 77.3022 309.231C76.4382 309.231 75.6642 309.435 74.9802 309.843C74.2962 310.239 73.7562 310.809 73.3602 311.553C72.9762 312.297 72.7842 313.173 72.7842 314.181C72.7842 315.213 72.9822 316.107 73.3782 316.863C73.7742 317.607 74.3202 318.183 75.0162 318.591C75.7242 318.987 76.5342 319.185 77.4462 319.185C78.2262 319.185 78.9402 319.017 79.5882 318.681C80.2362 318.345 80.7642 317.859 81.1722 317.223C81.5922 316.575 81.8442 315.819 81.9282 314.955H76.9422V313.731H83.3142V315.243C83.2062 316.251 82.8942 317.163 82.3782 317.979C81.8622 318.795 81.1662 319.443 80.2902 319.923C79.4142 320.403 78.4182 320.643 77.3022 320.643C76.0782 320.643 74.9982 320.373 74.0622 319.833C73.1262 319.281 72.3942 318.519 71.8662 317.547C71.3502 316.563 71.0922 315.441 71.0922 314.181C71.0922 312.921 71.3502 311.805 71.8662 310.833C72.3942 309.849 73.1262 309.081 74.0622 308.529C74.9982 307.977 76.0722 307.701 77.2842 307.701ZM90.232 309.159V313.497H95.056V314.757H90.232V319.185H95.596V320.517H88.594V307.827H95.596V309.159H90.232ZM108.535 307.827V309.159H104.953V320.517H103.315V309.159H99.7334V307.827H108.535ZM130.595 320.517H128.957L122.369 310.491V320.517H120.731V307.827H122.369L128.957 317.871V307.827H130.595V320.517ZM142.103 307.665C143.279 307.665 144.335 307.941 145.271 308.493C146.219 309.045 146.963 309.819 147.503 310.815C148.043 311.799 148.313 312.915 148.313 314.163C148.313 315.411 148.043 316.533 147.503 317.529C146.963 318.513 146.219 319.281 145.271 319.833C144.335 320.385 143.279 320.661 142.103 320.661C140.927 320.661 139.859 320.385 138.899 319.833C137.951 319.281 137.207 318.513 136.667 317.529C136.127 316.533 135.857 315.411 135.857 314.163C135.857 312.915 136.127 311.799 136.667 310.815C137.207 309.819 137.951 309.045 138.899 308.493C139.859 307.941 140.927 307.665 142.103 307.665ZM142.103 309.195C141.227 309.195 140.441 309.399 139.745 309.807C139.061 310.203 138.521 310.779 138.125 311.535C137.741 312.279 137.549 313.155 137.549 314.163C137.549 315.159 137.741 316.035 138.125 316.791C138.521 317.547 139.061 318.129 139.745 318.537C140.441 318.933 141.227 319.131 142.103 319.131C142.967 319.131 143.741 318.927 144.425 318.519C145.121 318.111 145.661 317.535 146.045 316.791C146.441 316.035 146.639 315.159 146.639 314.163C146.639 313.155 146.441 312.279 146.045 311.535C145.661 310.779 145.121 310.203 144.425 309.807C143.741 309.399 142.967 309.195 142.103 309.195ZM169.193 307.827L165.971 320.517H163.973L161.039 310.149L158.105 320.517H156.107L152.867 307.827H154.685L157.115 318.609L160.121 307.827H161.939L164.945 318.573L167.393 307.827H169.193Z" fill="white"/>
<defs>
<filter id="filter0_d_424_2" x="0" y="0.558594" width="240.421" height="375.893" filterUnits="userSpaceOnUse" color-interpolation-filters="sRGB">
<feFlood flood-opacity="0" result="BackgroundImageFix"/>
<feColorMatrix in="SourceAlpha" type="matrix" values="0 0 0 0 0 0 0 0 0 0 0 0 0 0 0 0 0 0 127 0" result="hardAlpha"/>
<feOffset dy="5"/>
<feGaussianBlur stdDeviation="8.5"/>
<feComposite in2="hardAlpha" operator="out"/>
<feColorMatrix type="matrix" values="0 0 0 0 0.0962847 0 0 0 0 0.154557 0 0 0 0 0.391667 0 0 0 0.37 0"/>
<feBlend mode="normal" in2="BackgroundImageFix" result="effect1_dropShadow_424_2"/>
<feBlend mode="normal" in="SourceGraphic" in2="effect1_dropShadow_424_2" result="shape"/>
</filter>
<linearGradient id="paint0_linear_424_2" x1="45.506" y1="-22.0367" x2="378.826" y2="623.075" gradientUnits="userSpaceOnUse">
<stop stop-color="#344AC1"/>
<stop offset="1" stop-color="#B42AB5"/>
</linearGradient>
</defs>
</svg>
